<svg xmlns="http://www.w3.org/2000/svg" viewBox="58.9 225.7 500 384.2" enable-background="new 58.9 225.7 500 384.2"><path fill="#E69E00" d="M177.3 556.8h369.9l-185-318z"/><path fill="#F72331" d="M200.3 513.1h323.9l-162-278.5z"/><path fill="#009995" d="M224.2 471.9h276.1l-138.1-237.3z"/><path fill="#801DE1" d="M248.7 430.7h227.1l-113.6-196.1z"/><path fill="#3B5998" d="M277.4 380.5h169.7l-84.9-145.9z"/><path stroke="#E8F4FB" stroke-width="6" fill="none" d="M177.3 555h369.9l-185-318z"/><path stroke="#E8F4FB" stroke-width="3" fill="none" d="M68.7 380.6h380.1M68.7 431.4h407M68.7 472.1h432.1M68.7 513.3h456.5M68.8 556.8h481.1"/><text transform="translate(223.136 601.113)" fill="#E8F4FB" font-family="'Helvetica'" font-size="21.516">Mazlow’s Hierarchy of Needs</text><text transform="translate(67.834 552.39)" fill="#E8F4FB" font-family="'Helvetica'" font-size="14.344">Physiological</text><text transform="translate(67.834 508.518)" fill="#E8F4FB" font-family="'Helvetica'" font-size="14.344">Safety</text><text transform="translate(67.834 467.25)" fill="#E8F4FB" font-family="'Helvetica'" font-size="14.344">Love / Belonging</text><text transform="translate(67.834 427.193)" fill="#E8F4FB" font-family="'Helvetica'" font-size="14.344">Esteem</text><text transform="translate(67.834 375.239)" fill="#E8F4FB" font-family="'Helvetica'" font-size="14.344">Self-Actualization</text><text transform="translate(225.012 537.246)" fill="#E8F4FB" font-family="'Helvetica'" font-size="10.758">breathing, food, water, sex, sleep, homeostasis, excretion</text><text transform="translate(262.695 489.234)" fill="#E8F4FB" font-family="'Helvetica'" font-size="10.758">security of: body, employment, resources,</text><text transform="translate(277.039 502.144)" fill="#E8F4FB" font-family="'Helvetica'" font-size="10.758">morality, the family, health, property</text><text transform="translate(282.131 454.77)" fill="#E8F4FB" font-family="'Helvetica'" font-size="10.758">friendship, family, sexual intimacy</text><text transform="translate(303.946 396.797)" fill="#E8F4FB" font-family="'Helvetica'" font-size="10.758">self-esteem, confidence,</text><text transform="translate(287.212 409.706)" fill="#E8F4FB" font-family="'Helvetica'" font-size="10.758">achievement, respect of others,</text><text transform="translate(320.98 422.615)" fill="#E8F4FB" font-family="'Helvetica'" font-size="10.758">respect by others</text><text transform="translate(341.924 301.969)" fill="#E8F4FB" font-family="'Helvetica'" font-size="10.758">morality,</text><text transform="translate(339.533 314.878)" fill="#E8F4FB" font-family="'Helvetica'" font-size="10.758">creativity,</text><text transform="translate(333.258 327.788)" fill="#E8F4FB" font-family="'Helvetica'" font-size="10.758">spontaneity,</text><text transform="translate(323.098 340.697)" fill="#E8F4FB" font-family="'Helvetica'" font-size="10.758">problem solving,</text><text transform="translate(321.902 353.606)" fill="#E8F4FB" font-family="'Helvetica'" font-size="10.758">lack of prejudice,</text><text transform="translate(315.926 366.516)" fill="#E8F4FB" font-family="'Helvetica'" font-size="10.758">acceptance of facts</text></svg>